# xmcd CD database file
#
# Track frame offsets:
#	182
#	17732
#	33620
#	51367
#	67710
#	82345
#	98180
#	117187
#	134082
#	145655
#	161450
#	179350
#	190587
#	208657
#	217907
#	235490
#	254210
#
# Disc length: 3647 seconds
#
# Revision: 1
# Processed by: cddbd v1.5.2PL0 Copyright (c) Steve Scherf et al.
# Submitted via: CDex 1.70beta2
#
DISCID=fc0e3d11
DTITLE=CLARENCE EDWARDS - SWAMPS THE WORD
DYEAR=1991
DGENRE=Blues
TTITLE0=STOOP DOWN BABY
TTITLE1=ROCKY MOUNTAINS
TTITLE2=CHEWING GUM
TTITLE3=I'M YOUR SLAVE
TTITLE4=DRIVING WHEEL
TTITLE5=WALKING THE DOG
TTITLE6=STILL A FOOL (ACOUSTIC and ELECTRICAL VERSION)
TTITLE7=LONESOME BEDROOM BLUES
TTITLE8=DONE GOT OVER IT
TTITLE9=LET ME LOVE YOU
TTITLE10=I'M THE ONE
TTITLE11=I WANT SOMEBODY
TTITLE12=BORN WITH THE BLUES
TTITLE13=COAL BLACK MARE
TTITLE14=THINGS I USED TO DO
TTITLE15=HI HEEL SNEAKERS
TTITLE16=HOOCHIE COOCHIE MAN
EXTD=YEAR: 1991
EXTT0=
EXTT1=
EXTT2=
EXTT3=
EXTT4=
EXTT5=
EXTT6=
EXTT7=
EXTT8=
EXTT9=
EXTT10=
EXTT11=
EXTT12=
EXTT13=
EXTT14=
EXTT15=
EXTT16=
PLAYORDER=
